<svg xmlns="http://www.w3.org/2000/svg" width="155" height="40" fill="none"><rect width="155" height="40" fill="#3D3D3D" rx="6"/><path fill="#fff" fill-rule="evenodd" d="M38.769 20.58a4.949 4.949 0 0 1 2.357-4.152 5.066 5.066 0 0 0-3.992-2.157c-1.679-.177-3.307 1.004-4.163 1.004-.872 0-2.19-.987-3.608-.958a5.315 5.315 0 0 0-4.473 2.728c-1.934 3.349-.491 8.27 1.361 10.976.927 1.326 2.01 2.806 3.428 2.754 1.387-.058 1.905-.885 3.58-.885 1.658 0 2.144.885 3.59.851 1.489-.024 2.426-1.331 3.32-2.669a10.957 10.957 0 0 0 1.52-3.092 4.782 4.782 0 0 1-2.92-4.4ZM36.037 12.49A4.872 4.872 0 0 0 37.152 9a4.957 4.957 0 0 0-3.208 1.66 4.636 4.636 0 0 0-1.143 3.361 4.099 4.099 0 0 0 3.236-1.53Z" clip-rule="evenodd"/><path fill="#fff" d="M53.144 9.542V9.02h4.716v.522h-2.052V15.5h-.612V9.542h-2.052Zm8.736 4.239v-.729c-.306.126-.771.213-1.395.261-.876.066-1.314.396-1.314.99 0 .264.105.474.315.63.186.138.417.207.693.207.468 0 .858-.108 1.17-.324.354-.24.531-.585.531-1.035Zm-1.656-.9.747-.099c.354-.048.567-.087.639-.117.18-.084.27-.258.27-.522 0-.63-.387-.945-1.161-.945-.822 0-1.275.351-1.359 1.053h-.549c.036-.516.24-.909.612-1.179.33-.24.765-.36 1.305-.36 1.128 0 1.692.483 1.692 1.449v2.538c0 .288.081.432.243.432.078 0 .186-.024.324-.072v.423c-.18.06-.321.09-.423.09-.246 0-.42-.057-.522-.171-.096-.114-.147-.297-.153-.549a2.234 2.234 0 0 1-1.737.774c-.444 0-.807-.111-1.089-.333-.312-.24-.468-.576-.468-1.008 0-.792.543-1.26 1.629-1.404Zm.666-2.781-.162-.054-.171.153c-.012-.252.045-.441.171-.567.276-.282.414-.483.414-.603 0-.276-.144-.414-.432-.414a.482.482 0 0 0-.378.162.542.542 0 0 0-.135.396l-.162-.108a.616.616 0 0 1 .198-.522.756.756 0 0 1 .54-.225c.192 0 .357.057.495.171a.53.53 0 0 1 .216.45c0 .126-.063.27-.189.432a18.2 18.2 0 0 0-.333.36.861.861 0 0 0-.072.369Zm3.741 5.4h-.54v-4.662h.54V15.5Zm.027-5.679h-.594V9.02h.594v.801Zm7.911 1.143V15.5h-.54v-.648a2.664 2.664 0 0 1-.549.504c-.282.18-.6.27-.954.27-1.104 0-1.656-.573-1.656-1.719v-3.069h.54v3.06c0 .828.399 1.242 1.197 1.242.468 0 .831-.183 1.089-.549.222-.324.333-.729.333-1.215v-2.538l.477.027c.144-.066.216-.15.216-.252 0-.078-.042-.141-.126-.189a.521.521 0 0 0-.234-.036c.03-.03.117-.06.261-.09.144-.03.234-.033.27-.009a.343.343 0 0 1 .189.315c0 .24-.171.36-.513.36Zm-1.755-.504h-.18l.774-1.188h.693l-1.287 1.188Zm3.777 2.529V15.5h-.54v-4.662h.54v.648c.486-.516.987-.774 1.503-.774.648 0 1.122.222 1.422.666.156.228.234.585.234 1.071V15.5h-.54v-3.042c0-.84-.402-1.26-1.206-1.26-.318 0-.597.093-.837.279a1.309 1.309 0 0 0-.46.63c-.077.216-.116.51-.116.882Zm8.24.198c0-.582-.134-1.053-.404-1.413-.288-.384-.678-.576-1.17-.576-.462 0-.84.162-1.134.486-.294.318-.447.765-.46 1.341-.011.618.112 1.116.37 1.494.282.414.69.621 1.224.621.474 0 .858-.195 1.152-.585.282-.366.423-.822.423-1.368Zm0-1.53v-.819h.54v4.212c0 1.572-.728 2.358-2.186 2.358-.624 0-1.12-.153-1.485-.459-.3-.252-.462-.546-.486-.882h.576c.132.57.597.855 1.395.855.666 0 1.128-.228 1.386-.684.192-.336.279-.831.26-1.485a1.732 1.732 0 0 1-.71.648c-.3.15-.618.225-.954.225-.672 0-1.197-.249-1.575-.747-.336-.444-.504-1.017-.504-1.719 0-.738.162-1.317.486-1.737.366-.474.906-.711 1.62-.711.312 0 .62.084.927.252.312.168.543.399.693.693h.018Zm8.368 1.494c0-.546-.141-1.002-.423-1.368-.294-.39-.678-.585-1.152-.585-.534 0-.942.207-1.224.621-.258.378-.381.876-.37 1.494.013.576.166 1.026.46 1.35.294.318.672.477 1.134.477.492 0 .882-.192 1.17-.576.27-.36.405-.831.405-1.413Zm0-1.566V9.02h.54v6.48h-.54v-.819h-.018a1.61 1.61 0 0 1-.693.693 1.908 1.908 0 0 1-.927.252c-.714 0-1.254-.237-1.62-.711-.324-.42-.486-.999-.486-1.737 0-.702.168-1.275.504-1.719.378-.498.903-.747 1.575-.747.336 0 .654.078.954.234.306.15.543.363.71.639Zm5.24 1.791v-2.538h.54V15.5h-.54v-.648a2.664 2.664 0 0 1-.548.504c-.282.18-.6.27-.954.27-1.104 0-1.656-.573-1.656-1.719v-3.069h.54v3.06c0 .828.399 1.242 1.197 1.242.468 0 .83-.183 1.089-.549.222-.324.333-.729.333-1.215Zm-1.025 3.366h-.55v-.684h.55v.684Zm3.588-3.753V15.5h-.54v-4.662h.54v.648c.486-.516.987-.774 1.503-.774.648 0 1.122.222 1.422.666.156.228.234.585.234 1.071V15.5h-.54v-3.042c0-.84-.402-1.26-1.206-1.26-.318 0-.597.093-.837.279a1.309 1.309 0 0 0-.46.63c-.077.216-.116.51-.116.882Zm8.241.198c0-.582-.135-1.053-.405-1.413-.288-.384-.678-.576-1.17-.576-.462 0-.84.162-1.134.486-.294.318-.447.765-.459 1.341-.012.618.111 1.116.369 1.494.282.414.69.621 1.224.621.474 0 .858-.195 1.152-.585.282-.366.423-.822.423-1.368Zm0-1.53v-.819h.54v4.212c0 1.572-.729 2.358-2.187 2.358-.624 0-1.119-.153-1.485-.459-.3-.252-.462-.546-.486-.882h.576c.132.57.597.855 1.395.855.666 0 1.128-.228 1.386-.684.192-.336.279-.831.261-1.485a1.732 1.732 0 0 1-.711.648c-.3.15-.618.225-.954.225-.672 0-1.197-.249-1.575-.747-.336-.444-.504-1.017-.504-1.719 0-.738.162-1.317.486-1.737.366-.474.906-.711 1.62-.711.312 0 .621.084.927.252.312.168.543.399.693.693h.018Zm6.404 3.42v.441c-.336.072-.543.108-.621.108-.552 0-.828-.309-.828-.927v-3.411h-.657v-.45h.657V9.542h.54v1.296h.873v.45h-.873v3.195c0 .258.021.426.063.504.06.102.195.153.405.153.126 0 .273-.021.441-.063Zm1.614-1.863V15.5h-.54v-4.662h.54v.873h.018c.144-.366.333-.624.567-.774.234-.15.552-.225.954-.225v.585c-1.026-.024-1.539.615-1.539 1.917Zm2.943-.369h3.042c0-.48-.123-.87-.369-1.17-.27-.318-.639-.477-1.107-.477-.45 0-.816.165-1.098.495-.252.294-.408.678-.468 1.152Zm3.618.45h-3.618c-.006.516.123.945.387 1.287.282.372.675.558 1.179.558.354 0 .657-.093.909-.279.258-.192.426-.456.504-.792h.603c-.318 1.038-.99 1.557-2.016 1.557-.714 0-1.257-.234-1.629-.702-.342-.426-.513-1.005-.513-1.737 0-.684.183-1.257.549-1.719.396-.504.927-.756 1.593-.756.714 0 1.248.261 1.602.783.306.45.456 1.05.45 1.8Zm-2.052-3.618-.63.783h-.495l.873-1.062h.522l.864 1.062h-.495l-.639-.783Zm3.822 3.312V15.5h-.54v-4.662h.54v.648c.486-.516.987-.774 1.503-.774.648 0 1.122.222 1.422.666.156.228.234.585.234 1.071V15.5h-.54v-3.042c0-.84-.402-1.26-1.206-1.26-.318 0-.597.093-.837.279a1.309 1.309 0 0 0-.459.63c-.078.216-.117.51-.117.882ZM69.92 21.977c2.298 0 3.812 1.816 3.812 4.622 0 2.813-1.505 4.62-3.778 4.62a3.07 3.07 0 0 1-2.848-1.583h-.043v4.484h-1.859V22.071h1.799v1.506h.034a3.212 3.212 0 0 1 2.883-1.6Zm9.965 0c2.298 0 3.812 1.816 3.812 4.622 0 2.813-1.506 4.62-3.778 4.62a3.07 3.07 0 0 1-2.849-1.583h-.043v4.484H75.17V22.071h1.799v1.506h.034a3.212 3.212 0 0 1 2.883-1.6ZM93.227 18.5c2.624 0 4.422 1.472 4.483 3.614h-1.876c-.112-1.239-1.137-1.987-2.634-1.987-1.497 0-2.521.757-2.521 1.858 0 .878.654 1.395 2.255 1.79l1.368.336c2.548.603 3.606 1.626 3.606 3.443 0 2.323-1.85 3.778-4.794 3.778-2.754 0-4.613-1.42-4.733-3.667h1.902c.138 1.232 1.334 2.04 2.969 2.04 1.566 0 2.693-.808 2.693-1.919 0-.964-.68-1.54-2.289-1.936l-1.61-.388c-2.28-.55-3.338-1.617-3.338-3.348 0-2.142 1.867-3.614 4.519-3.614Zm15.705 3.46c2.625 0 4.295 1.79 4.295 4.639 0 2.856-1.662 4.638-4.295 4.638s-4.294-1.782-4.294-4.638c0-2.849 1.677-4.639 4.294-4.639Zm15.048 0c2.505 0 4.081 1.72 4.081 4.466v.637h-6.395v.112a2.357 2.357 0 0 0 2.436 2.564 2.047 2.047 0 0 0 2.09-1.273h1.765c-.25 1.643-1.851 2.771-3.898 2.771-2.634 0-4.269-1.764-4.269-4.595 0-2.84 1.644-4.682 4.19-4.682Zm-22.061-2.031v2.142h1.722v1.472h-1.722v4.991c0 .776.345 1.137 1.102 1.137a5.79 5.79 0 0 0 .611-.043v1.463c-.34.063-.686.092-1.032.086-1.833 0-2.548-.689-2.548-2.445v-5.189h-1.317v-1.472h1.317V19.93h1.867Zm-42.353-1.222 4.484 12.418h-2.04l-1.135-3.356h-4.733l-1.137 3.356H53l4.483-12.418h2.083Zm59.186 3.27c.214-.001.428.022.637.069v1.738a2.604 2.604 0 0 0-.835-.112 1.874 1.874 0 0 0-1.937 2.083v5.37h-1.858v-9.054h1.772v1.541h.043a2.16 2.16 0 0 1 2.178-1.635Zm-9.82 1.514c-1.506 0-2.401 1.162-2.401 3.108 0 1.962.895 3.106 2.401 3.106 1.506 0 2.401-1.144 2.401-3.106 0-1.954-.895-3.108-2.401-3.108Zm-39.502.07c-1.42 0-2.375 1.23-2.375 3.038 0 1.824.955 3.046 2.375 3.046 1.445 0 2.392-1.197 2.392-3.046 0-1.833-.947-3.038-2.392-3.038Zm9.964 0c-1.42 0-2.375 1.23-2.375 3.038 0 1.824.956 3.046 2.375 3.046 1.446 0 2.393-1.197 2.393-3.046 0-1.833-.947-3.038-2.393-3.038Zm-20.86-2.788h-.051l-1.851 5.447h3.752l-1.85-5.447Zm65.446 2.693a2.29 2.29 0 0 0-2.305 2.298h4.526a2.178 2.178 0 0 0-2.221-2.298Z"/></svg>