<svg xmlns="http://www.w3.org/2000/svg" width="24" height="24" fill="none"><path stroke="#888" stroke-linecap="round" stroke-linejoin="round" stroke-width="1.5" d="M12 8.063 8.26 10.78M12 8.062l3.74 2.72M12 8.061V6m-3.74 4.781 1.424 4.406M8.26 10.782l-1.968-.637m3.393 5.043h4.632m-4.632 0-1.209 1.67m5.84-1.67 1.426-4.406m-1.425 4.406 1.209 1.67m.216-6.076 1.968-.637M12 6l3.281-2.381M12 6 8.719 3.619M6.29 10.144 5.044 6.29m1.247 3.853-3.282 2.39m5.466 4.322h-4.06m4.06 0 1.256 3.853m5.794-3.853-1.256 3.853m1.256-3.853h4.06m-1.876-6.712 3.282 2.39m-3.282-2.39 1.247-3.853M21 12a9 9 0 1 1-18 0 9 9 0 0 1 18 0Z"/></svg>