<svg xmlns="http://www.w3.org/2000/svg" width="155" height="40" fill="none"><rect width="155" height="40" fill="#3D3D3D" rx="6"/><path fill="#00D7FE" fill-rule="evenodd" d="M22.435 7.547c-.291.308-.462.785-.462 1.404v22.098c0 .619.17 1.096.462 1.404l.074.072 12.379-12.38v-.291l-12.38-12.38-.073.073Z" clip-rule="evenodd"/><mask id="a" width="12" height="10" x="34" y="15" maskUnits="userSpaceOnUse" style="mask-type:alpha"><path fill="#fff" d="m39.013 24.274-4.125-4.128v-.292l4.127-4.127 4.982 2.83c1.396.794 1.396 2.092 0 2.885l-4.89 2.778-.094.054Z"/></mask><g mask="url(#a)"><path fill="url(#b)" fill-rule="evenodd" d="m39.013 24.274-4.125-4.128v-.292l4.127-4.127 4.982 2.83c1.396.794 1.396 2.092 0 2.885l-4.89 2.778-.094.054Z" clip-rule="evenodd"/></g><mask id="c" width="18" height="13" x="22" y="20" maskUnits="userSpaceOnUse" style="mask-type:alpha"><path fill="#fff" d="M39.108 24.22 34.888 20 22.435 32.453c.46.487 1.22.547 2.077.061l14.596-8.294Z"/></mask><g mask="url(#c)"><path fill="url(#d)" fill-rule="evenodd" d="M39.108 24.22 34.888 20 22.435 32.453c.46.487 1.22.547 2.077.061l14.596-8.294Z" clip-rule="evenodd"/></g><mask id="e" width="18" height="13" x="22" y="7" maskUnits="userSpaceOnUse" style="mask-type:alpha"><path fill="#fff" d="M39.108 15.78 24.512 7.486c-.856-.486-1.616-.426-2.077.06L34.888 20l4.22-4.22Z"/></mask><g mask="url(#e)"><path fill="url(#f)" fill-rule="evenodd" d="M39.108 15.78 24.512 7.486c-.856-.486-1.616-.426-2.077.06L34.888 20l4.22-4.22Z" clip-rule="evenodd"/></g><path fill="#FFFFFE" fill-rule="evenodd" d="M116.894 30.953h1.866V18.452h-1.866v12.501Zm16.807-7.998-2.139 5.42h-.064l-2.22-5.42h-2.01l3.329 7.575-1.898 4.214h1.947l5.13-11.789h-2.075Zm-10.582 6.578c-.612 0-1.464-.305-1.464-1.061 0-.965 1.062-1.335 1.978-1.335.821 0 1.206.177 1.705.418a2.262 2.262 0 0 1-2.219 1.978Zm.225-6.851c-1.351 0-2.75.595-3.329 1.914l1.656.691c.354-.691 1.013-.917 1.705-.917.965 0 1.946.579 1.962 1.609v.128c-.338-.193-1.061-.482-1.946-.482-1.785 0-3.603.981-3.603 2.814 0 1.673 1.464 2.751 3.104 2.751 1.255 0 1.946-.563 2.381-1.223h.064v.965h1.801V26.14c0-2.22-1.656-3.458-3.795-3.458Zm-11.532 1.795h-2.654v-4.285h2.654c1.395 0 2.187 1.155 2.187 2.142 0 .969-.792 2.143-2.187 2.143Zm-.048-6.025h-4.471v12.501h1.865v-4.736h2.606c2.068 0 4.101-1.498 4.101-3.883s-2.033-3.882-4.101-3.882ZM87.383 29.535c-1.289 0-2.368-1.079-2.368-2.561 0-1.498 1.079-2.594 2.368-2.594 1.273 0 2.271 1.096 2.271 2.594 0 1.482-.998 2.561-2.271 2.561Zm2.142-5.88h-.064c-.419-.499-1.224-.95-2.239-.95-2.127 0-4.076 1.868-4.076 4.269 0 2.384 1.949 4.237 4.076 4.237 1.015 0 1.82-.451 2.239-.967h.064v.612c0 1.628-.869 2.498-2.271 2.498-1.144 0-1.853-.822-2.143-1.515l-1.627.677c.467 1.128 1.708 2.513 3.77 2.513 2.191 0 4.044-1.289 4.044-4.43v-7.637h-1.773v.693Zm3.062 7.298h1.869V18.451h-1.869v12.502Zm4.623-4.124c-.048-1.643 1.273-2.481 2.223-2.481.742 0 1.37.37 1.579.902l-3.802 1.579Zm5.8-1.418c-.354-.95-1.434-2.706-3.641-2.706-2.191 0-4.011 1.723-4.011 4.253 0 2.384 1.804 4.253 4.22 4.253 1.95 0 3.078-1.192 3.545-1.885l-1.45-.967c-.483.709-1.144 1.176-2.095 1.176-.95 0-1.627-.435-2.062-1.288l5.687-2.352-.193-.484ZM57.702 24.01v1.804h4.317c-.129 1.015-.467 1.756-.982 2.272-.629.628-1.612 1.32-3.335 1.32-2.658 0-4.737-2.142-4.737-4.8 0-2.659 2.079-4.801 4.737-4.801 1.434 0 2.481.564 3.254 1.289l1.273-1.273C61.149 18.79 59.716 18 57.702 18 54.061 18 51 20.965 51 24.606s3.061 6.605 6.702 6.605c1.965 0 3.447-.644 4.607-1.853 1.192-1.192 1.563-2.867 1.563-4.221 0-.419-.032-.805-.097-1.127h-6.073Zm11.079 5.525c-1.289 0-2.401-1.063-2.401-2.577 0-1.531 1.112-2.578 2.401-2.578 1.288 0 2.4 1.047 2.4 2.578 0 1.514-1.112 2.577-2.4 2.577Zm0-6.83c-2.353 0-4.27 1.788-4.27 4.253 0 2.448 1.917 4.253 4.27 4.253 2.352 0 4.269-1.805 4.269-4.253 0-2.465-1.917-4.253-4.269-4.253Zm9.313 6.83c-1.289 0-2.401-1.063-2.401-2.577 0-1.531 1.112-2.578 2.401-2.578 1.289 0 2.4 1.047 2.4 2.578 0 1.514-1.111 2.577-2.4 2.577Zm0-6.83c-2.352 0-4.269 1.788-4.269 4.253 0 2.448 1.917 4.253 4.269 4.253 2.352 0 4.269-1.805 4.269-4.253 0-2.465-1.917-4.253-4.269-4.253Z" clip-rule="evenodd"/><path fill="#fff" d="M54.107 7.602V14h-.835V7.602h.835Zm2.057 0v.694H51.22v-.694h4.944Zm2.858 5.585v-2.448a.992.992 0 0 0-.114-.488.747.747 0 0 0-.334-.325 1.21 1.21 0 0 0-.553-.114c-.206 0-.386.035-.541.105a.942.942 0 0 0-.36.277.607.607 0 0 0-.128.37h-.813c0-.17.044-.339.132-.506.088-.167.214-.318.378-.453a1.89 1.89 0 0 1 .598-.325c.234-.082.495-.123.782-.123.346 0 .65.059.914.176.267.117.475.294.624.532.152.234.229.529.229.883v2.215c0 .158.013.327.039.505.03.179.072.333.127.462V14h-.848a1.523 1.523 0 0 1-.096-.373 3.018 3.018 0 0 1-.035-.44Zm.141-2.07.009.571h-.822c-.231 0-.438.02-.62.058-.181.035-.333.089-.456.162a.735.735 0 0 0-.378.66c0 .149.033.285.1.408a.736.736 0 0 0 .304.294c.138.07.306.106.505.106a1.373 1.373 0 0 0 1.112-.545.832.832 0 0 0 .185-.444l.347.391c-.02.123-.076.26-.167.409a1.956 1.956 0 0 1-.901.77 1.748 1.748 0 0 1-.694.13c-.323 0-.605-.062-.849-.188a1.451 1.451 0 0 1-.562-.505 1.338 1.338 0 0 1-.198-.717c0-.255.05-.479.15-.672.1-.196.243-.359.43-.488.188-.132.413-.231.677-.299a3.57 3.57 0 0 1 .883-.1h.945Zm-.699-2.645h-.584l-.005-.668c.15-.01.272-.024.365-.044a.439.439 0 0 0 .207-.101.26.26 0 0 0 .066-.185.217.217 0 0 0-.057-.154.395.395 0 0 0-.159-.105.873.873 0 0 0-.232-.062 2.131 2.131 0 0 0-.282-.017l.031-.466c.217 0 .407.019.571.057.167.038.306.094.418.167.114.073.199.161.255.264.058.1.087.21.087.334 0 .222-.07.385-.21.487-.141.1-.296.162-.466.185l-.005.308Zm3.264.773V14h-.818V9.245h.818Zm-.88-1.261a.49.49 0 0 1 .12-.334c.081-.09.201-.136.36-.136.155 0 .274.045.356.136a.47.47 0 0 1 .127.334.46.46 0 0 1-.127.325c-.082.088-.201.132-.356.132-.159 0-.279-.044-.36-.132a.479.479 0 0 1-.12-.325Zm8.329.879h.624c0 .32-.043.587-.128.804a.888.888 0 0 1-.435.488c-.208.108-.5.162-.879.162v-.5c.264 0 .453-.033.567-.097a.437.437 0 0 0 .211-.312c.027-.14.04-.323.04-.545ZM67.634 12.9V9.245h.818V14h-.778l-.04-1.099Zm.154-1.002.338-.008c0 .316-.033.609-.1.879a1.89 1.89 0 0 1-.317.694c-.146.196-.338.35-.576.461-.237.109-.525.163-.865.163-.232 0-.444-.034-.638-.101a1.274 1.274 0 0 1-.492-.312 1.419 1.419 0 0 1-.32-.55 2.647 2.647 0 0 1-.11-.813V9.245h.813v3.076c0 .214.023.391.07.532.05.138.116.248.198.33.085.079.178.134.28.167.106.032.215.048.326.048.346 0 .62-.066.822-.198.202-.135.347-.315.435-.54a2.04 2.04 0 0 0 .136-.76Zm-1.582-3.265.853-1.292h.98L66.86 8.634h-.655Zm4.634 1.626V14h-.813V9.245h.77l.043 1.015Zm-.193 1.182-.338-.013a2.86 2.86 0 0 1 .145-.9 2.25 2.25 0 0 1 .395-.726 1.762 1.762 0 0 1 1.393-.646c.235 0 .446.032.633.097.188.061.347.161.48.299.134.137.236.316.307.536.07.217.105.482.105.795V14h-.817v-3.124c0-.25-.037-.449-.11-.598a.675.675 0 0 0-.32-.33 1.151 1.151 0 0 0-.52-.105c-.202 0-.386.042-.553.127a1.325 1.325 0 0 0-.426.352 1.77 1.77 0 0 0-.374 1.12Zm7.166-2.197h.738V13.9c0 .419-.085.776-.255 1.072a1.66 1.66 0 0 1-.712.673c-.302.155-.65.232-1.046.232a2.57 2.57 0 0 1-.58-.079 2.342 2.342 0 0 1-.65-.259 1.624 1.624 0 0 1-.532-.488l.426-.483c.2.24.407.407.624.5.22.095.437.142.65.142.258 0 .481-.049.669-.146.187-.096.332-.24.435-.43.105-.188.158-.42.158-.694V10.29l.075-1.046Zm-3.274 2.43v-.092c0-.363.042-.693.127-.989a2.38 2.38 0 0 1 .374-.769 1.677 1.677 0 0 1 1.375-.668c.299 0 .56.053.782.158.226.103.416.254.572.453.158.196.282.434.373.712.091.278.154.593.19.945v.404a4.142 4.142 0 0 1-.19.94c-.09.279-.215.516-.373.712a1.564 1.564 0 0 1-.572.453c-.225.103-.489.154-.79.154-.285 0-.543-.06-.774-.18a1.76 1.76 0 0 1-.589-.506 2.393 2.393 0 0 1-.378-.764 3.478 3.478 0 0 1-.127-.963Zm.813-.092v.092c0 .238.023.46.07.668.05.208.124.391.224.55.103.158.233.282.391.373.158.088.347.132.567.132.27 0 .492-.057.668-.171.176-.115.315-.266.418-.453.105-.188.187-.391.246-.61v-1.06a2.163 2.163 0 0 0-.15-.466 1.434 1.434 0 0 0-.255-.404 1.103 1.103 0 0 0-.382-.286 1.268 1.268 0 0 0-.536-.105c-.223 0-.415.047-.576.14-.158.091-.288.217-.39.378-.1.159-.175.343-.225.554-.047.208-.07.43-.07.668Zm9.123 1.494V7.25h.818V14h-.747l-.07-.923Zm-3.199-1.402v-.092c0-.363.044-.693.132-.989.09-.299.218-.555.382-.769a1.687 1.687 0 0 1 1.367-.668c.299 0 .56.053.782.158.226.103.416.254.571.453.159.196.283.434.374.712.09.278.154.593.189.945v.404a4.137 4.137 0 0 1-.19.94c-.09.279-.214.516-.373.712a1.564 1.564 0 0 1-.57.453c-.227.103-.49.154-.792.154-.278 0-.533-.06-.764-.18a1.804 1.804 0 0 1-.594-.506 2.461 2.461 0 0 1-.382-.764 3.366 3.366 0 0 1-.132-.963Zm.817-.092v.092c0 .238.024.46.07.668.05.208.127.391.23.55.102.158.232.282.39.373.159.088.347.132.567.132.27 0 .491-.057.664-.171.176-.115.316-.266.422-.453.105-.188.187-.391.246-.61v-1.06a2.349 2.349 0 0 0-.154-.466 1.434 1.434 0 0 0-.255-.404 1.103 1.103 0 0 0-.382-.286 1.239 1.239 0 0 0-.532-.105c-.223 0-.414.047-.576.14-.158.091-.288.217-.39.378a1.749 1.749 0 0 0-.23.554c-.046.208-.07.43-.07.668Zm7.104 1.318V9.245h.818V14h-.778l-.04-1.099Zm.154-1.002.339-.008c0 .316-.034.609-.101.879-.065.266-.17.498-.317.694-.146.196-.338.35-.576.461-.237.109-.525.163-.865.163-.232 0-.444-.034-.638-.101a1.274 1.274 0 0 1-.492-.312 1.421 1.421 0 0 1-.32-.55 2.65 2.65 0 0 1-.11-.813V9.245h.813v3.076c0 .214.023.391.07.532.05.138.116.248.198.33.085.079.178.134.281.167.106.032.214.048.325.048.346 0 .62-.066.822-.198.202-.135.347-.315.435-.54.09-.229.136-.482.136-.76Zm-1.95 3.182a.49.49 0 0 1 .118-.334c.082-.09.202-.136.36-.136.155 0 .274.045.356.136a.47.47 0 0 1 .127.334.444.444 0 0 1-.127.32c-.082.092-.2.137-.356.137-.158 0-.278-.045-.36-.136a.463.463 0 0 1-.119-.32Zm4.396-4.82V14h-.813V9.245h.77l.043 1.015Zm-.193 1.181-.339-.013a2.86 2.86 0 0 1 .145-.9c.094-.279.226-.52.396-.726a1.761 1.761 0 0 1 1.393-.646c.234 0 .445.032.633.097.187.061.347.161.479.299.134.137.237.316.307.536.07.217.106.482.106.795V14h-.818v-3.124c0-.25-.036-.449-.11-.598a.676.676 0 0 0-.32-.33 1.152 1.152 0 0 0-.519-.105c-.202 0-.386.042-.553.127a1.327 1.327 0 0 0-.427.352 1.771 1.771 0 0 0-.373 1.12Zm7.165-2.197h.738V13.9c0 .419-.084.776-.254 1.072-.17.296-.408.52-.712.673-.302.155-.65.232-1.046.232-.164 0-.358-.026-.58-.079a2.34 2.34 0 0 1-.65-.259 1.625 1.625 0 0 1-.532-.488l.426-.483c.2.24.407.407.624.5.22.095.436.142.65.142.258 0 .48-.049.668-.146.188-.096.333-.24.435-.43.106-.188.159-.42.159-.694V10.29l.074-1.046Zm-3.274 2.43v-.092c0-.363.043-.693.128-.989.088-.299.212-.555.373-.769a1.677 1.677 0 0 1 1.376-.668c.299 0 .56.053.782.158.226.103.416.254.571.453.159.196.283.434.374.712.09.278.154.593.189.945v.404a4.137 4.137 0 0 1-.19.94c-.09.279-.215.516-.373.712a1.564 1.564 0 0 1-.571.453c-.226.103-.49.154-.791.154-.284 0-.542-.06-.773-.18a1.762 1.762 0 0 1-.59-.506 2.392 2.392 0 0 1-.377-.764 3.474 3.474 0 0 1-.128-.963Zm.813-.092v.092c0 .238.024.46.07.668.05.208.125.391.225.55.102.158.233.282.39.373.16.088.348.132.568.132.27 0 .492-.057.668-.171a1.24 1.24 0 0 0 .417-.453c.106-.188.188-.391.246-.61v-1.06a2.157 2.157 0 0 0-.15-.466 1.434 1.434 0 0 0-.254-.404 1.103 1.103 0 0 0-.382-.286 1.269 1.269 0 0 0-.536-.105c-.223 0-.415.047-.576.14-.158.091-.289.217-.391.378-.1.159-.175.343-.224.554-.047.208-.07.43-.07.668Zm8.118-2.338v.624h-2.571v-.624h2.571Zm-1.701-1.156h.813v4.733c0 .161.025.283.075.365a.354.354 0 0 0 .193.163.8.8 0 0 0 .255.04c.067 0 .137-.007.211-.018a5.25 5.25 0 0 0 .171-.036l.005.664c-.065.02-.15.04-.255.057-.103.02-.227.03-.374.03-.199 0-.382-.039-.549-.118a.88.88 0 0 1-.4-.395c-.097-.188-.145-.44-.145-.756V8.089Zm3.197 1.903V14h-.813V9.245h.791l.022.747Zm1.486-.773-.005.756a2.06 2.06 0 0 0-.395-.035c-.188 0-.353.029-.497.087a1.03 1.03 0 0 0-.365.246 1.202 1.202 0 0 0-.237.378 1.819 1.819 0 0 0-.11.475l-.228.132c0-.287.027-.557.083-.809.059-.252.148-.474.268-.668.12-.196.273-.348.457-.457a1.285 1.285 0 0 1 .87-.145.618.618 0 0 1 .159.04Zm2.366 4.869c-.331 0-.631-.056-.901-.167a2.055 2.055 0 0 1-.69-.48 2.128 2.128 0 0 1-.439-.729 2.664 2.664 0 0 1-.154-.922v-.185c0-.387.057-.731.172-1.033a2.31 2.31 0 0 1 .465-.773c.197-.211.419-.37.668-.48a1.92 1.92 0 0 1 .774-.162c.34 0 .633.059.879.176.249.117.452.281.61.492.159.208.276.454.352.739.076.28.114.588.114.922v.365h-3.55v-.664h2.737v-.061a1.983 1.983 0 0 0-.132-.615c-.073-.2-.19-.363-.351-.492-.161-.13-.381-.194-.659-.194a1.106 1.106 0 0 0-.91.462 1.722 1.722 0 0 0-.259.558c-.062.22-.092.473-.092.76v.185c0 .225.03.438.092.637.064.196.157.369.277.518.123.15.271.267.444.352.175.085.375.127.597.127.287 0 .53-.058.73-.175.199-.118.373-.274.523-.47l.492.39a2.295 2.295 0 0 1-.391.444c-.159.14-.353.255-.585.343a2.261 2.261 0 0 1-.813.132Zm.136-6.838 1.09 1.2v.044h-.676l-.66-.743-.654.743h-.668v-.049l1.076-1.195h.492Zm3.207 3.01V14h-.813V9.245h.769l.044 1.015Zm-.194 1.182-.338-.013c.003-.325.051-.625.145-.9a2.25 2.25 0 0 1 .395-.726 1.759 1.759 0 0 1 1.393-.646c.235 0 .446.032.633.097.188.061.347.161.479.299.135.137.238.316.308.536.07.217.105.482.105.795V14h-.817v-3.124c0-.25-.037-.449-.11-.598a.673.673 0 0 0-.321-.33 1.148 1.148 0 0 0-.518-.105c-.202 0-.387.042-.554.127a1.324 1.324 0 0 0-.426.352c-.117.15-.21.32-.277.514-.065.19-.097.393-.097.606Z"/><defs><linearGradient id="b" x1="43.089" x2="34.888" y1="20" y2="20" gradientUnits="userSpaceOnUse"><stop stop-color="#FFBC00"/><stop offset="1" stop-color="#FFDA03"/></linearGradient><linearGradient id="d" x1="36.814" x2="26.111" y1="23.971" y2="32.793" gradientUnits="userSpaceOnUse"><stop stop-color="#E22652"/><stop offset="1" stop-color="#FF3A44"/></linearGradient><linearGradient id="f" x1="24.32" x2="31.457" y1="9.046" y2="15.321" gradientUnits="userSpaceOnUse"><stop stop-color="#0ED574"/><stop offset="1" stop-color="#07F076"/></linearGradient></defs></svg>