<svg xmlns="http://www.w3.org/2000/svg" width="24" height="24" fill="none" viewBox="0 0 24 24"><path stroke="#5D5D5D" stroke-linecap="round" stroke-linejoin="round" d="M2.056 23A1.058 1.058 0 0 1 1 21.939V2.06C1 1.475 1.473 1 2.056 1h19.889C22.527 1 23 1.475 23 2.061V21.94c0 .586-.473 1.061-1.055 1.061H2.055Z" clip-rule="evenodd"/><path stroke="#5D5D5D" d="M19.33 8.943H16.898c-.675 0-1.223.548-1.223 1.223v2.445h3.657l-.536 3.665h-3.12V23h-4.022v-6.724h-3.32v-3.665h3.277l.043-3.48-.012-1.246a3.188 3.188 0 0 1 3.189-3.22h4.5v4.278Z" clip-rule="evenodd"/></svg>