<svg xmlns="http://www.w3.org/2000/svg" width="24" height="24" fill="none"><path fill="#888" fill-rule="evenodd" d="M17.792 2.08a1.49 1.49 0 0 1 1.842 1.056v.002l.778 2.892a.75.75 0 0 1-.53.92l-2.859.766a.757.757 0 0 1-.077.02l-6.414 1.721a.753.753 0 0 1-.146.04l-.945.253H20.25a.75.75 0 0 1 .75.75v8.25a1.5 1.5 0 0 1-1.5 1.5h-15a1.5 1.5 0 0 1-1.5-1.5v-8.151l-.753-2.803A1.5 1.5 0 0 1 3.314 5.96h.002l8.6-2.305a.752.752 0 0 1 .175-.047l5.701-1.527Zm-5.695 3.079-4.477 1.2 2.747 1.59 4.48-1.202-2.75-1.588Zm4.798 1.038L14.146 4.61l4.039-1.083h.001l.582 2.168-1.873.502Zm-8.574 2.3-2.748-1.59-1.873.502h-.003l.583 2.172L8.32 8.497ZM4.5 11.25v7.5h15v-7.5h-15Z" clip-rule="evenodd"/></svg>