<svg xmlns="http://www.w3.org/2000/svg" width="24" height="24" fill="none" class="mytv-gmail-login mr-2"><path fill="#fff" d="M8.36.79a11.865 11.865 0 0 0 .812 22.668c1.988.513 4.07.536 6.068.066A10.712 10.712 0 0 0 20.096 21a10.77 10.77 0 0 0 3-4.924c.58-2.048.684-4.202.302-6.296h-11.16v4.63h6.463a5.573 5.573 0 0 1-2.374 3.66 6.787 6.787 0 0 1-2.611 1.03 7.744 7.744 0 0 1-2.832 0 6.975 6.975 0 0 1-2.634-1.149 7.369 7.369 0 0 1-2.719-3.64 7.181 7.181 0 0 1 0-4.62 7.36 7.36 0 0 1 1.721-2.795 6.97 6.97 0 0 1 7.022-1.833 6.43 6.43 0 0 1 2.558 1.5c.729-.725 1.456-1.452 2.182-2.181.375-.392.784-.765 1.153-1.166A11.474 11.474 0 0 0 16.35.86 12 12 0 0 0 8.36.789Z"/><path fill="#E33629" d="M8.36.79a12 12 0 0 1 7.99.069 11.475 11.475 0 0 1 3.816 2.366c-.375.401-.77.776-1.153 1.166-.728.726-1.455 1.45-2.181 2.171a6.432 6.432 0 0 0-2.558-1.5A6.97 6.97 0 0 0 7.252 6.89a7.36 7.36 0 0 0-1.722 2.795L1.643 6.675A11.912 11.912 0 0 1 8.36.789Z"/><path fill="#F8BD00" d="M.611 9.656a11.812 11.812 0 0 1 1.031-2.981L5.53 9.692a7.181 7.181 0 0 0 0 4.618c-1.295 1-2.59 2.005-3.887 3.015a11.874 11.874 0 0 1-1.03-7.669Z"/><path fill="#587DBD" d="M12.238 9.778h11.16a13.931 13.931 0 0 1-.302 6.296 10.77 10.77 0 0 1-3 4.924c-1.254-.979-2.514-1.95-3.768-2.929a5.573 5.573 0 0 0 2.373-3.663h-6.463c-.002-1.542 0-3.085 0-4.628Z"/><path fill="#319F43" d="M1.64 17.325c1.297-1 2.592-2.005 3.887-3.015a7.369 7.369 0 0 0 2.723 3.641c.791.56 1.69.948 2.64 1.14a7.744 7.744 0 0 0 2.831 0 6.788 6.788 0 0 0 2.612-1.03c1.255.978 2.515 1.95 3.769 2.928a10.712 10.712 0 0 1-4.856 2.525c-1.998.47-4.08.448-6.068-.065a11.813 11.813 0 0 1-4.312-2.173 11.944 11.944 0 0 1-3.225-3.95Z"/></svg>