<svg xmlns="http://www.w3.org/2000/svg" width="24" height="24" fill="none"><path fill="#F2F2F2" d="M16.022 18.586a2.065 2.065 0 0 1 0-4.128 2.064 2.064 0 0 1 0 4.128Zm-.015-6.2a4.12 4.12 0 1 0 0 8.24 4.12 4.12 0 0 0 0-8.24Z"/><path fill="#F2F2F2" d="M7.49 17.623h2.317c-.517 1.49-1.926 1.243-1.926 1.243-1.14-.021-1.674-.953-1.674-.953-.952-1.656 0-2.876 0-2.876.434-.766 1.573-.849 1.573-.849 1.386 0 1.862 1.035 1.862 1.035h2.152a4.118 4.118 0 0 0-8.031 1.283 4.118 4.118 0 1 0 8.211-.455H7.49v1.572Z"/><path fill="#F2F2F2" stroke="#F2F2F2" d="M14.886 16.505a1.119 1.119 0 1 1 2.237 0 1.119 1.119 0 0 1-2.237 0Z"/><path fill="#F2F2F2" d="M15.854 7.101a2.052 2.052 0 1 1 4.104 0 2.052 2.052 0 0 1-4.104 0Zm-2.857 0c.253-.033.677-.322.826-.508-.052.23-.056.895.004 1.124-.17-.262-.572-.584-.83-.616ZM11.52 4.928c.323 0 .576.318.576.681 0 .363-.254.682-.576.682h-1.109V4.928h1.11Zm-.004 3.026c.322 0 .576.318.576.681 0 .364-.254.68-.576.68h-1.108V7.954h1.108Zm6.387 3.28c2.26 0 4.097-1.877 4.096-4.135A4.072 4.072 0 0 0 17.905 3c-2.257-.003-3.41 1.658-3.693 2.329.002-1.006-.99-2.194-2.15-2.196H8.325v8.062h3.484c1.406.001 2.405-1.216 2.406-2.26.322.657 1.433 2.302 3.69 2.3m-10.037-.037h-2.19V8.071H4.255v3.128H2.008L2 3.134h2.256v3h1.422v-3H7.87v8.064Z"/><path fill="#F2F2F2" d="M19.518 7.101a1.612 1.612 0 1 1-3.225 0 1.613 1.613 0 1 1 3.225 0Z"/></svg>