<svg xmlns="http://www.w3.org/2000/svg" width="24" height="24" fill="none"><path stroke="#888" stroke-linejoin="round" stroke-width="1.5" d="M18.6 4.2H5.4a2 2 0 0 0-2 2v8.4a2 2 0 0 0 2 2h13.2a2 2 0 0 0 2-2V6.2a2 2 0 0 0-2-2Z"/><path stroke="#888" stroke-linecap="round" stroke-linejoin="round" stroke-width="1.5" d="M8 19.3h8"/><path fill="#888" d="M15.529 14h-1.245a1 1 0 0 1-1-1V7.729a1 1 0 0 1 1-1h1.344c.706 0 1.31.146 1.811.437a2.86 2.86 0 0 1 1.154 1.246c.268.54.402 1.186.402 1.94 0 .757-.135 1.409-.405 1.956-.27.544-.663.963-1.18 1.257-.515.291-1.143.437-1.881.437Zm-1.364-1.78a1 1 0 0 0 1 1h.307c.601 0 1.1-.117 1.495-.349.395-.232.69-.562.884-.99.194-.429.291-.939.291-1.53 0-.588-.095-1.093-.287-1.517a2.121 2.121 0 0 0-.86-.98c-.38-.23-.855-.345-1.424-.345h-.406a1 1 0 0 0-1 1v3.71ZM6.322 14a.44.44 0 0 1-.44-.44V7.168a.44.44 0 0 1 .88 0v2.799h3.879V7.168a.44.44 0 0 1 .88 0v6.392a.44.44 0 0 1-.88 0v-2.812H6.763v2.812a.44.44 0 0 1-.44.44Z"/></svg>