<svg xmlns="http://www.w3.org/2000/svg" width="49" height="40" fill="none" class="w-[39.2px] h-8 md:w-[49px] md:h-[40px]"><g clip-path="url(#a)"><path fill="#F6932B" d="M48.396 3.659c-.35-.965-.976-1.71-1.74-2.35-.43-.362-.91-.68-1.449-.846-1.02-.315-2.063-.5-3.142-.456-.292.012-.551.141-.844.144-.703.007-1.383.187-2.055.37-.872.237-1.728.531-2.597.778-1.41.4-2.801.863-4.2 1.302-.687.217-1.368.457-2.06.655-1.002.288-1.981.64-2.968.969-.758.252-1.517.5-2.276.749-.717.236-1.446.44-2.147.715-.757.297-1.543.499-2.304.781-.727.271-1.482.465-2.217.717-.964.33-1.92.684-2.88 1.023-.995.35-1.99.693-2.986 1.039-.658.227-1.315.46-1.976.677-.719.236-1.438.471-2.107.826-1.338.71-2.554 1.585-3.557 2.729-.812.925-1.422 1.96-1.726 3.17-.1.405-.094.82-.186 1.22-.14.613-.23 1.236-.343 1.854-.2 1.088-.385 2.18-.583 3.27-.212 1.168-.408 2.34-.611 3.51-.12.697-.24 1.393-.363 2.09-.102.574-.224 1.145-.306 1.721-.084.589-.227 1.165-.319 1.753-.08.518-.118 1.053-.26 1.551-.444 1.557-.106 2.995.783 4.245 1.001 1.408 2.516 2.097 4.22 2.11 5.859.044 11.718.017 17.577.017 4.94-.001 9.88.01 14.82-.009 1.258-.005 2.514.033 3.778-.088 1.16-.11 2.286-.276 3.396-.63 1.19-.378 2.122-1.114 2.815-2.107.804-1.152 1.197-2.5 1.202-3.89.031-9.04.016-18.08.028-27.121a7.135 7.135 0 0 0-.417-2.488Zm-23.021 8.563c.043-.64.087-1.281.14-1.921.034-.436.159-.632.557-.662 1.11-.086 2.202-.318 3.279-.39.645-.013.77.132.694.728-.076.602-.141 1.207-.2 1.812-.032.345-.178.534-.55.576-1.026.116-2.048.26-3.073.39-.113.014-.23.012-.344.008-.36-.01-.527-.185-.503-.54Zm1.761 8.957c-.035.388-.087.774-.126 1.162-.018.187-.112.302-.294.327-.613.086-1.226.163-1.692.225-.645.01-.733-.086-.678-.582.033-.296.071-.591.1-.888.024-.25.168-.353.406-.381.614-.074 1.228-.158 1.842-.237.343-.045.471.058.442.374Zm-5.007-4.933c.049-.663.044-1.33.156-1.987.038-.224.177-.34.395-.367 1.001-.124 2.001-.255 3.004-.364.468-.05.581.083.57.68-.051.465-.143 1.03-.16 1.605-.009.251-.17.43-.431.466-1.022.137-2.045.276-3.07.393-.275.03-.487-.128-.464-.427Zm-.018 3.327c.004-.07.001-.138.001-.207a5.59 5.59 0 0 1 .068-.858c.03-.219.146-.328.353-.357.693-.093 1.386-.195 2.08-.273.364-.04.49.095.46.462-.032.388-.089.774-.134 1.162-.027.225-.142.34-.378.368-.615.07-1.23.153-1.842.24-.547.077-.633.004-.608-.537Zm-2.416 13.755c-.15.675-.598 1.065-1.241 1.08-.754.016-1.241-.335-1.425-1.033a2.778 2.778 0 0 1-.08-.717c0-1.826-.006-3.653 0-5.48a3.603 3.603 0 0 0-.176-1.083c-.267-.865-1.25-1.24-2.154-.825-.845.388-1.308 1.061-1.393 1.984-.153 1.673-.041 3.351-.073 5.027-.01.449-.035.893-.187 1.322-.19.54-.632.814-1.301.806-.579-.01-1.012-.312-1.18-.832a3.116 3.116 0 0 1-.154-.98 327.89 327.89 0 0 0-.005-5.135c-.007-.534-.017-1.077-.246-1.587-.169-.377-.435-.607-.833-.703-.547-.132-1.07-.053-1.58.164-.694.295-.874.94-1.031 1.578-.12.49-.165.997-.165 1.503-.003 1.378.008 2.757-.01 4.135-.005.502-.038 1.01-.391 1.43-.346.413-.797.485-1.28.404-.486-.08-.848-.35-.995-.843a3.386 3.386 0 0 1-.146-.984c.005-1.31.002-2.619.002-3.929 0-1.31-.007-2.642.004-3.962.004-.474.061-.937.439-1.298.662-.632 1.838-.314 2.08.574.024.088.027.183.058.269.047.133-.04.349.14.389.153.033.235-.158.339-.259 1.325-1.29 2.855-1.625 4.593-.992.552.2.939.606 1.279 1.062.242.325.29.342.57.036.88-.965 1.96-1.472 3.27-1.402 1.202.065 2.249.454 2.893 1.569.248.43.333.9.387 1.383.087.766.07 1.535.07 2.305-.001 1.435-.003 2.871 0 4.307 0 .243-.025.481-.078.718Zm10.722-8.877c-.186.929-.569 1.792-.903 2.671-.556 1.457-1.095 2.922-1.676 4.37-.684 1.703-1.256 3.45-2.018 5.124-.657 1.442-1.777 2.065-3.31 2.066h-.24c-.618-.028-1.243 0-1.824-.272-.438-.206-.595-.532-.529-1.116.046-.398.304-.649.756-.726.229-.04.455-.023.684.026 1.143.244 1.621-.102 2.056-.957.026-.051.055-.1.08-.153.36-.77.381-1.55.063-2.344-1.041-2.612-2.083-5.224-3.118-7.839-.13-.328-.277-.662-.226-1.031.09-.642.523-1.076 1.14-1.155.608-.078 1.085.19 1.333.846.441 1.17.843 2.356 1.255 3.538.428 1.224.848 2.451 1.274 3.676.035.1.029.269.173.263.131-.005.14-.168.175-.271.57-1.612 1.129-3.229 1.704-4.84.285-.8.519-1.619.872-2.393.37-.815 1.105-1.067 1.787-.636.41.259.588.677.492 1.153Zm.184-14.246c.07-.856.134-1.715.213-2.57.029-.303.26-.419.529-.456 1.022-.138 2.046-.271 3.07-.403.375-.049.751-.086 1.127-.133.64-.08.907.193.827.826a88.08 88.08 0 0 0-.258 2.255c-.06.59-.139.708-.741.793-1.022.143-2.047.258-3.07.387-.262.034-.521.086-.783.119-.71.09-.924-.104-.913-.818Z"/><path fill="#fff" d="M36.367 7.469a88.08 88.08 0 0 0-.257 2.255c-.06.59-.14.708-.742.793-1.022.143-2.047.258-3.07.387-.262.034-.52.086-.783.119-.709.09-.923-.104-.913-.818.07-.856.134-1.715.213-2.57.028-.303.26-.419.528-.456 1.023-.138 2.046-.271 3.07-.403.375-.049.752-.086 1.127-.133.64-.08.908.192.827.826ZM30.045 9.976a61.22 61.22 0 0 0-.199 1.813c-.033.345-.179.534-.55.576-1.026.116-2.048.26-3.073.39-.113.014-.23.012-.344.008-.361-.01-.528-.185-.504-.54.043-.642.088-1.282.14-1.923.035-.435.16-.631.557-.661 1.11-.086 2.203-.318 3.28-.39.644-.014.769.132.693.727ZM26.254 14.209c-.05.463-.143 1.03-.16 1.604-.008.251-.169.43-.43.466-1.023.137-2.045.276-3.07.392-.275.031-.488-.127-.465-.426.05-.662.044-1.329.157-1.986.037-.224.176-.34.394-.367 1.002-.124 2.002-.255 3.005-.364.467-.05.58.083.57.68ZM25.073 18.34c-.032.388-.089.774-.134 1.162-.026.225-.142.34-.377.368-.616.07-1.23.153-1.843.24-.547.077-.633.004-.607-.537.003-.07 0-.138 0-.207a5.578 5.578 0 0 1 .069-.858c.03-.219.145-.328.352-.357.694-.093 1.386-.195 2.081-.273.363-.04.489.095.459.461ZM27.136 21.18c-.035.387-.087.773-.126 1.16-.018.188-.112.302-.294.328-.612.085-1.226.163-1.692.225-.645.01-.733-.086-.678-.582.033-.296.072-.591.1-.888.025-.25.169-.353.406-.382.615-.073 1.228-.157 1.842-.236.343-.045.471.058.442.374ZM19.774 32.611c0 .243-.026.481-.078.718-.15.674-.599 1.065-1.242 1.078-.754.017-1.24-.334-1.425-1.032a2.778 2.778 0 0 1-.08-.717c0-1.826-.005-3.653 0-5.48a3.6 3.6 0 0 0-.176-1.083c-.267-.865-1.25-1.24-2.154-.825-.844.388-1.307 1.061-1.392 1.984-.154 1.673-.042 3.351-.074 5.027-.009.449-.035.893-.186 1.322-.191.54-.632.815-1.302.806-.579-.01-1.012-.312-1.18-.832a3.119 3.119 0 0 1-.154-.98c.007-1.712.014-3.423-.005-5.135-.007-.534-.017-1.076-.245-1.587-.17-.377-.436-.607-.833-.703-.548-.132-1.071-.053-1.58.164-.694.295-.875.94-1.032 1.578-.12.49-.164.997-.165 1.503-.003 1.378.008 2.757-.009 4.135-.006.502-.038 1.01-.392 1.43-.346.413-.796.485-1.28.404-.486-.08-.847-.35-.994-.842a3.386 3.386 0 0 1-.146-.985c.004-1.31.002-2.619.002-3.928 0-1.31-.007-2.643.003-3.963.004-.474.061-.937.44-1.298.661-.632 1.838-.314 2.08.574.024.088.026.183.057.269.047.133-.04.349.14.389.153.033.236-.158.339-.259 1.325-1.29 2.855-1.625 4.593-.992.552.2.939.606 1.279 1.063.242.324.29.341.57.035.88-.965 1.961-1.472 3.27-1.402 1.202.065 2.249.454 2.894 1.57.247.429.332.9.387 1.382.086.766.069 1.536.069 2.305 0 1.436-.002 2.871.001 4.307ZM30.417 24.45c-.186.93-.569 1.793-.903 2.672-.556 1.457-1.095 2.922-1.676 4.37-.684 1.703-1.256 3.45-2.018 5.123-.657 1.443-1.777 2.066-3.31 2.067h-.24c-.617-.028-1.243 0-1.824-.272-.438-.206-.595-.532-.529-1.116.046-.398.304-.649.756-.726.229-.04.456-.023.684.025 1.143.244 1.621-.1 2.056-.956.026-.051.055-.1.08-.153.36-.77.382-1.55.063-2.345-1.041-2.611-2.083-5.223-3.118-7.838-.13-.328-.277-.662-.226-1.031.09-.642.523-1.076 1.14-1.155.608-.078 1.086.19 1.333.846.441 1.17.843 2.356 1.255 3.538.428 1.224.848 2.451 1.274 3.676.036.1.029.269.173.263.131-.005.14-.168.175-.271.57-1.612 1.129-3.229 1.704-4.84.285-.8.519-1.619.872-2.393.37-.815 1.105-1.068 1.787-.636.41.259.588.677.492 1.153Z"/><path fill="#0069BC" d="M42.089 31.14c.394-1.077.758-2.079 1.128-3.078.494-1.332.992-2.664 1.492-3.995.048-.128.116-.25.18-.371.326-.616.89-.839 1.531-.609.642.231 1.002.818.802 1.468-.236.766-.546 1.51-.843 2.256a1436.36 1436.36 0 0 1-2.52 6.26c-.085.212-.188.419-.301.618-.357.63-.904.925-1.627.885-.664-.036-1.125-.399-1.395-.974-.355-.758-.67-1.535-.987-2.311-.757-1.848-1.5-3.701-2.263-5.547-.043-.102-.213-.215-.326-.217-.838-.019-1.677-.009-2.516-.013-.208-.002-.278.086-.277.291.008 1.827 0 3.653.016 5.48.008.828.355 1.12 1.176 1.035.33-.034.657-.116.987-.138a.936.936 0 0 1 .929.58c.155.398.126.818-.207 1.077-.332.26-.736.472-1.143.58-.828.22-1.682.23-2.528.06-1.243-.247-1.921-1-2.03-2.264a18.694 18.694 0 0 1-.073-1.548c-.006-2.998-.005-5.996-.001-8.995 0-.413.03-.826.052-1.238.035-.626.495-1.133 1.133-1.253.596-.114 1.284.223 1.497.792.117.316.166.667.186 1.006.03.504.01 1.011.01 1.516 0 .343.166.514.497.514 1.195.002 2.39.01 3.585.002.548-.003.932.228 1.123.737.5 1.331.99 2.666 1.474 4.004.382 1.057.746 2.121 1.12 3.181.018.051.053.096.117.209h.002Z"/></g><defs><clipPath id="a"><path fill="#fff" d="M0 0h48.814v40H0z"/></clipPath></defs></svg>