<svg xmlns="http://www.w3.org/2000/svg" width="24" height="24" fill="none"><g clip-path="url(#a)"><path fill="#FABE80" d="M12 1C5.935 1 1 5.935 1 12s4.935 11 11 11 11-4.935 11-11S18.065 1 12 1Zm0 20.533c-5.257 0-9.533-4.277-9.533-9.533a9.48 9.48 0 0 1 2.302-6.194l2.736 2.736-2.073 6.914a.733.733 0 0 0 1.397.442l.566-1.698h1.933l.503 1.677a.733.733 0 1 0 1.406-.42l-1.364-4.548 2.861 2.861v1.897c0 .405.329.733.733.733h1.467c.134 0 .26-.026.39-.04l2.871 2.871A9.487 9.487 0 0 1 12 21.533Zm-3.112-8.8h-1.11l.555-1.848.555 1.848Zm6.906 2.024L14.2 13.163V9.067h.733c1.213 0 2.2.987 2.2 2.2v1.466c0 .908-.553 1.688-1.339 2.024Zm3.437 3.438-2.36-2.362a3.658 3.658 0 0 0 1.728-3.1v-1.466A3.67 3.67 0 0 0 14.933 7.6h-1.467a.733.733 0 0 0-.733.733v3.363L5.806 4.77A9.485 9.485 0 0 1 12 2.467c5.256 0 9.533 4.276 9.533 9.533a9.48 9.48 0 0 1-2.302 6.195Z"/></g><defs><clipPath id="a"><path fill="#fff" d="M0 0h24v24H0z"/></clipPath></defs></svg>