<svg xmlns="http://www.w3.org/2000/svg" width="22" height="24" fill="none"><path stroke="#5D5D5D" stroke-linejoin="round" d="M9.14 9.21c-3.512-.162-5.953 1.042-7.323 3.615C-.238 16.685 1.46 23 8.317 23c6.856 0 7.054-6.377 7.054-7.045v-7.47c1.467.893 2.703 1.432 3.709 1.614 1.007.182 1.646.263 1.92.242V6.625c-.93-.108-1.736-.314-2.415-.618-1.019-.455-3.039-1.72-3.039-3.573.002.01.002-.469 0-1.434h-4.244c-.012 9.077-.012 14.062 0 14.955.019 1.34-1.061 3.214-3.25 3.214s-3.269-1.873-3.269-3.08c0-.74.264-1.811 1.355-2.605.647-.47 1.544-.659 3.001-.659V9.211Z"/></svg>